<?xml version="1.0" encoding="UTF-8" standalone="no"?> <svg id="Line" xmlns="http://www.w3.org/2000/svg" viewBox="0 0 64 64"><title>1</title><path d="M10.09668,44.40332a.86972.86972,0,0,1-.92334-.80176V30.58984a2.78225,2.78225,0,0,1,2.89453-2.64746h7.30859a1.00012,1.00012,0,0,0-.00006-2H12.06787a4.78137,4.78137,0,0,0-4.89453,4.64746V43.60156a2.86779,2.86779,0,0,0,2.92334,2.80176.86964.86964,0,0,1,.92334.80078V58.91016a1.00012,1.00012,0,0,0,2-.00006V47.2041A2.86762,2.86762,0,0,0,10.09668,44.40332Z"/><path d="M42.65234,44.49219a.86964.86964,0,0,1-.92334-.80078V26.16016a5.37163,5.37163,0,0,0-5.50341-5.2168H27.77441a5.37163,5.37163,0,0,0-5.50341,5.2168v17.4414a.86972.86972,0,0,1-.92334.80176,2.86762,2.86762,0,0,0-2.92334,2.80078V58.91016a1.00019,1.00019,0,0,0,2-.00006V47.2041a.86964.86964,0,0,1,.92334-.80078,2.88477,2.88477,0,0,0,2.87719-2.36438c.87207.4118,2.43067-.02307,2.4939,1.33417V58.91016a1.0002,1.0002,0,0,0,2-.00006v-13.537a3.15934,3.15934,0,0,0-3.22412-3.083A1.16061,1.16061,0,0,1,24.271,41.208c.00133-3.04692-.001-12.13283,0-15.04785a3.37342,3.37342,0,0,1,3.50341-3.2168h8.45118a3.37342,3.37342,0,0,1,3.50341,3.2168c-.00067,2.91076.00049,11.99261,0,15.04785a1.16061,1.16061,0,0,1-1.22363,1.082,3.15934,3.15934,0,0,0-3.22412,3.083V58.91016a1.00011,1.00011,0,0,0,2-.00006v-13.537c.06165-1.35358,1.61289-.92426,2.48495-1.32936a2.87728,2.87728,0,0,0,2.88614,2.4485.86972.86972,0,0,1,.92334.80176V59a1.00013,1.00013,0,0,0,2-.00006V47.294A2.86779,2.86779,0,0,0,42.65234,44.49219Z"/><path d="M51.93213,26.03223H44.62354a1.00018,1.00018,0,0,0,.00006,2h7.30853a2.78225,2.78225,0,0,1,2.89453,2.64746V43.69141a.86964.86964,0,0,1-.92334.80078A2.86779,2.86779,0,0,0,50.98,47.294V59a1.00012,1.00012,0,0,0,2-.00006V47.294a.86972.86972,0,0,1,.92334-.80176,2.86762,2.86762,0,0,0,2.92334-2.80078V30.67969A4.78137,4.78137,0,0,0,51.93213,26.03223Z"/><path d="M32.00012,17.98438C41.255,17.65559,41.25111,4.32674,31.99989,4,22.74579,4.32837,22.74817,17.65735,32.00012,17.98438Zm4.99207-6.99207c-.20941,6.59735-9.77594,6.59582-9.98438-.00012C27.21722,4.39465,36.78375,4.39618,36.99219,10.99231Z"/><path d="M48.27783,23.05664c7.26074-.23108,7.2591-10.7583-.00012-10.98828C41.01709,12.29944,41.01874,22.82666,48.27783,23.05664Zm0-8.98828a3.49436,3.49436,0,0,1-.00012,6.98828A3.49436,3.49436,0,0,1,48.27783,14.06836Z"/><path d="M21.21631,17.5625c-.23108-7.2608-10.7583-7.25909-10.98828.00012C10.45911,24.82324,20.98633,24.82153,21.21631,17.5625Zm-2,.00006A3.49436,3.49436,0,0,1,12.228,17.5625,3.49436,3.49436,0,0,1,19.21631,17.56256Z"/></svg>